<mxfile host="app.diagrams.net" modified="2024-07-10T14:25:39.838Z" agent="Mozilla/5.0 (Windows NT 10.0; Win64; x64) AppleWebKit/537.36 (KHTML, like Gecko) Chrome/126.0.0.0 Safari/537.36" etag="bvO2aTLx4Yo9BCzZjr9q" version="24.6.4" type="device">
  <diagram name="Page-1" id="YizmqHtp5LLP9ysi0owi">
    <mxGraphModel dx="1969" dy="868" grid="1" gridSize="10" guides="1" tooltips="1" connect="1" arrows="1" fold="1" page="1" pageScale="1" pageWidth="850" pageHeight="1100" math="0" shadow="0">
      <root>
        <mxCell id="0" />
        <mxCell id="1" parent="0" />
        <mxCell id="toh8vJUxXmWDnWjuMGwd-21" style="edgeStyle=orthogonalEdgeStyle;rounded=0;orthogonalLoop=1;jettySize=auto;html=1;entryX=0.5;entryY=0;entryDx=0;entryDy=0;" edge="1" parent="1" source="toh8vJUxXmWDnWjuMGwd-2">
          <mxGeometry relative="1" as="geometry">
            <mxPoint x="421" y="220" as="targetPoint" />
          </mxGeometry>
        </mxCell>
        <mxCell id="toh8vJUxXmWDnWjuMGwd-29" value="" style="shape=trapezoid;perimeter=trapezoidPerimeter;whiteSpace=wrap;html=1;fixedSize=1;" vertex="1" parent="1">
          <mxGeometry x="60" y="100" width="170" height="90" as="geometry" />
        </mxCell>
        <mxCell id="toh8vJUxXmWDnWjuMGwd-30" style="edgeStyle=orthogonalEdgeStyle;rounded=0;orthogonalLoop=1;jettySize=auto;html=1;entryX=0.5;entryY=0;entryDx=0;entryDy=0;" edge="1" source="toh8vJUxXmWDnWjuMGwd-31" target="toh8vJUxXmWDnWjuMGwd-33" parent="1">
          <mxGeometry relative="1" as="geometry" />
        </mxCell>
        <mxCell id="toh8vJUxXmWDnWjuMGwd-31" value="Start" style="strokeWidth=2;html=1;shape=mxgraph.flowchart.terminator;whiteSpace=wrap;" vertex="1" parent="1">
          <mxGeometry x="480" y="70" width="162" height="70" as="geometry" />
        </mxCell>
        <mxCell id="toh8vJUxXmWDnWjuMGwd-32" style="edgeStyle=orthogonalEdgeStyle;rounded=0;orthogonalLoop=1;jettySize=auto;html=1;" edge="1" source="toh8vJUxXmWDnWjuMGwd-33" parent="1">
          <mxGeometry relative="1" as="geometry">
            <mxPoint x="560" y="360" as="targetPoint" />
          </mxGeometry>
        </mxCell>
        <mxCell id="toh8vJUxXmWDnWjuMGwd-33" value="input(B1*B2)H" style="shape=parallelogram;html=1;strokeWidth=2;perimeter=parallelogramPerimeter;whiteSpace=wrap;rounded=1;arcSize=12;size=0.23;" vertex="1" parent="1">
          <mxGeometry x="400" y="220" width="322" height="90" as="geometry" />
        </mxCell>
        <mxCell id="toh8vJUxXmWDnWjuMGwd-34" value="Trapezoid Area - 1/2(B1*B2)h&lt;br&gt;T A=1/2(3*2)" style="rounded=0;whiteSpace=wrap;html=1;" vertex="1" parent="1">
          <mxGeometry x="390" y="360" width="332" height="80" as="geometry" />
        </mxCell>
        <mxCell id="toh8vJUxXmWDnWjuMGwd-35" style="edgeStyle=orthogonalEdgeStyle;rounded=0;orthogonalLoop=1;jettySize=auto;html=1;entryX=0.467;entryY=0.013;entryDx=0;entryDy=0;entryPerimeter=0;" edge="1" parent="1">
          <mxGeometry relative="1" as="geometry">
            <mxPoint x="550" y="580" as="sourcePoint" />
            <mxPoint x="549.06" y="641.04" as="targetPoint" />
          </mxGeometry>
        </mxCell>
        <mxCell id="toh8vJUxXmWDnWjuMGwd-36" style="edgeStyle=orthogonalEdgeStyle;rounded=0;orthogonalLoop=1;jettySize=auto;html=1;entryX=0.523;entryY=-0.075;entryDx=0;entryDy=0;entryPerimeter=0;" edge="1" source="toh8vJUxXmWDnWjuMGwd-34" parent="1">
          <mxGeometry relative="1" as="geometry">
            <mxPoint x="555.06" y="494" as="targetPoint" />
          </mxGeometry>
        </mxCell>
        <mxCell id="toh8vJUxXmWDnWjuMGwd-37" value="End" style="strokeWidth=2;html=1;shape=mxgraph.flowchart.terminator;whiteSpace=wrap;" vertex="1" parent="1">
          <mxGeometry x="470" y="640" width="162" height="70" as="geometry" />
        </mxCell>
        <mxCell id="toh8vJUxXmWDnWjuMGwd-39" value="Output TA=12" style="shape=parallelogram;html=1;strokeWidth=2;perimeter=parallelogramPerimeter;whiteSpace=wrap;rounded=1;arcSize=12;size=0.23;" vertex="1" parent="1">
          <mxGeometry x="395" y="500" width="322" height="90" as="geometry" />
        </mxCell>
        <mxCell id="toh8vJUxXmWDnWjuMGwd-42" value="b1=2" style="text;html=1;align=center;verticalAlign=middle;resizable=0;points=[];autosize=1;strokeColor=none;fillColor=none;" vertex="1" parent="1">
          <mxGeometry x="110" y="70" width="50" height="30" as="geometry" />
        </mxCell>
        <mxCell id="toh8vJUxXmWDnWjuMGwd-43" value="B2=3" style="text;html=1;align=center;verticalAlign=middle;resizable=0;points=[];autosize=1;strokeColor=none;fillColor=none;" vertex="1" parent="1">
          <mxGeometry x="120" y="190" width="50" height="30" as="geometry" />
        </mxCell>
        <mxCell id="toh8vJUxXmWDnWjuMGwd-44" value="h=2" style="text;html=1;align=center;verticalAlign=middle;resizable=0;points=[];autosize=1;strokeColor=none;fillColor=none;" vertex="1" parent="1">
          <mxGeometry x="30" y="128" width="40" height="30" as="geometry" />
        </mxCell>
      </root>
    </mxGraphModel>
  </diagram>
</mxfile>
